<svg version="1.2" xmlns="http://www.w3.org/2000/svg" viewBox="0 0 64 64" width="64" height="64"><style>.a{fill:#394240}</style><path fill-rule="evenodd" class="a" d="m49.3 64c-0.7 0-1.3-0.2-1.9-0.5l-15.4-8.5-15.4 8.5c-1.3 0.7-3 0.7-4.2-0.2-1.3-0.9-1.9-2.4-1.7-3.9l3-18.3-12.6-12.9c-1-1.1-1.4-2.7-0.9-4.1 0.5-1.4 1.7-2.4 3.2-2.7l17.2-2.6 7.8-16.5c0.6-1.4 2-2.3 3.6-2.3 1.5 0 3 0.9 3.6 2.3l7.8 16.5 17.2 2.6c1.5 0.3 2.7 1.3 3.2 2.7 0.5 1.4 0.1 3-0.9 4.1l-12.6 12.9 3 18.3c0.2 1.5-0.4 3-1.7 3.9-0.7 0.5-1.5 0.7-2.3 0.7zm-17.3-17.6q1 0 1.9 0.5l10.1 5.6-2-12.1c-0.2-1.3 0.2-2.5 1.1-3.4l8.6-8.8-11.7-1.8c-1.3-0.2-2.4-1.1-3-2.3l-5-10.7-5 10.7c-0.6 1.2-1.7 2.1-3 2.3l-11.7 1.8 8.6 8.8c0.9 0.9 1.3 2.1 1 3.4l-1.9 12.1 10.1-5.6q0.9-0.5 1.9-0.5z"/></svg>